<svg width="140" height="24" viewBox="0 0 140 24" fill="none" xmlns="http://www.w3.org/2000/svg">
<path d="M14.1777 3.46536L15.8359 6.87406C16.0631 7.34192 16.6704 7.8069 17.1853 7.89244L20.2485 8.44163C22.21 8.78899 22.6457 10.2168 21.2252 11.614L18.8058 13.9803C18.4018 14.3769 18.1618 15.1614 18.2867 15.715L18.9354 18.6841C19.4451 21.0282 18.1952 21.9232 16.1464 20.6776L13.2844 18.9372C12.7632 18.6192 11.909 18.6167 11.388 18.9159L8.48919 20.5837C6.41416 21.7756 5.18177 20.8547 5.74547 18.5249L6.46549 15.5767C6.59995 15.0256 6.38823 14.2356 5.9916 13.8316L3.61184 11.4078C2.22357 9.98276 2.69134 8.56597 4.65682 8.26035L7.72566 7.78536C8.2438 7.70092 8.86212 7.26242 9.09561 6.79553L10.832 3.41921C11.7798 1.60074 13.2826 1.62064 14.1777 3.46536Z" fill="#F7AD1B"/>
<path d="M43.1777 3.46536L44.8359 6.87406C45.0631 7.34192 45.6704 7.8069 46.1853 7.89244L49.2485 8.44163C51.21 8.78899 51.6457 10.2168 50.2252 11.614L47.8058 13.9803C47.4018 14.3769 47.1618 15.1614 47.2867 15.715L47.9354 18.6841C48.4451 21.0282 47.1952 21.9232 45.1464 20.6776L42.2844 18.9372C41.7632 18.6192 40.909 18.6167 40.388 18.9159L37.4892 20.5837C35.4142 21.7756 34.1818 20.8547 34.7455 18.5249L35.4655 15.5767C35.5999 15.0256 35.3882 14.2356 34.9916 13.8316L32.6118 11.4078C31.2236 9.98276 31.6913 8.56597 33.6568 8.26035L36.7257 7.78536C37.2438 7.70092 37.8621 7.26242 38.0956 6.79553L39.832 3.41921C40.7798 1.60074 42.2826 1.62064 43.1777 3.46536Z" fill="#F7AD1B"/>
<path d="M72.1777 3.46536L73.8359 6.87406C74.0631 7.34192 74.6704 7.8069 75.1853 7.89244L78.2485 8.44163C80.21 8.78899 80.6457 10.2168 79.2252 11.614L76.8058 13.9803C76.4018 14.3769 76.1618 15.1614 76.2867 15.715L76.9354 18.6841C77.4451 21.0282 76.1952 21.9232 74.1464 20.6776L71.2844 18.9372C70.7632 18.6192 69.909 18.6167 69.388 18.9159L66.4892 20.5837C64.4142 21.7756 63.1818 20.8547 63.7455 18.5249L64.4655 15.5767C64.5999 15.0256 64.3882 14.2356 63.9916 13.8316L61.6118 11.4078C60.2236 9.98276 60.6913 8.56597 62.6568 8.26035L65.7257 7.78536C66.2438 7.70092 66.8621 7.26242 67.0956 6.79553L68.832 3.41921C69.7798 1.60074 71.2826 1.62064 72.1777 3.46536Z" fill="#F7AD1B"/>
<path d="M101.178 3.46536L102.836 6.87406C103.063 7.34192 103.67 7.8069 104.185 7.89244L107.249 8.44163C109.21 8.78899 109.646 10.2168 108.225 11.614L105.806 13.9803C105.402 14.3769 105.162 15.1614 105.287 15.715L105.935 18.6841C106.445 21.0282 105.195 21.9232 103.146 20.6776L100.284 18.9372C99.7632 18.6192 98.909 18.6167 98.388 18.9159L95.4892 20.5837C93.4142 21.7756 92.1818 20.8547 92.7455 18.5249L93.4655 15.5767C93.5999 15.0256 93.3882 14.2356 92.9916 13.8316L90.6118 11.4078C89.2236 9.98276 89.6913 8.56597 91.6568 8.26035L94.7257 7.78536C95.2438 7.70092 95.8621 7.26242 96.0956 6.79553L97.832 3.41921C98.7798 1.60074 100.283 1.62064 101.178 3.46536Z" fill="#F7AD1B"/>
<path d="M130.178 3.46536L131.836 6.87406C132.063 7.34192 132.67 7.8069 133.185 7.89244L136.249 8.44163C138.21 8.78899 138.646 10.2168 137.225 11.614L134.806 13.9803C134.402 14.3769 134.162 15.1614 134.287 15.715L134.935 18.6841C135.445 21.0282 134.195 21.9232 132.146 20.6776L129.284 18.9372C128.763 18.6192 127.909 18.6167 127.388 18.9159L124.489 20.5837C122.414 21.7756 121.182 20.8547 121.745 18.5249L122.465 15.5767C122.6 15.0256 122.388 14.2356 121.992 13.8316L119.612 11.4078C118.224 9.98276 118.691 8.56597 120.657 8.26035L123.726 7.78536C124.244 7.70092 124.862 7.26242 125.096 6.79553L126.832 3.41921C127.78 1.60074 129.283 1.62064 130.178 3.46536Z" fill="#F6AD1B"/>
</svg>
