<svg width="225" height="42" viewBox="0 0 225 42" fill="none" xmlns="http://www.w3.org/2000/svg">
<path d="M196.629 0.207031C195.824 0.207031 195.172 0.864264 195.172 1.67468V11.9681H222.153L209.866 0.207981L196.629 0.207031Z" fill="#9CA3AF"/>
<path d="M223.14 15.0839C223.14 14.2716 222.493 13.6172 221.683 13.6172H211.472V40.8085L223.136 28.4205L223.14 15.0839Z" fill="#9CA3AF"/>
<path d="M208.378 41.7914C209.181 41.7914 209.833 41.1332 209.833 40.3209V30.0312H182.852L195.14 41.7895L208.378 41.7914Z" fill="#9CA3AF"/>
<path d="M181.865 26.9161C181.865 27.7275 182.517 28.3885 183.324 28.3885H193.534V1.19531L181.867 13.5796L181.865 26.9161Z" fill="#9CA3AF"/>
<path d="M58.1943 5.16973V17.7271H40.8344V5.16973L34.5117 5.16406V36.8264H40.8344V23.2241H58.1943V36.8264H64.5274V5.16973H58.1943Z" fill="#9CA3AF"/>
<path d="M142.307 5.17188V36.821H170.046L166.533 31.2492H148.647V23.2263H165.966V17.8597H148.647V10.6132H166.503L169.944 5.17188H142.307Z" fill="#9CA3AF"/>
<path d="M11.0092 5.16406C4.43222 5.16406 1.11035 9.19349 1.11035 15.0566V26.8753C1.11035 33.6604 5.3912 36.8283 10.9764 36.8283L30.8136 36.8264L27.1361 31.039H12.2019C9.02926 31.039 7.64705 29.8835 7.64705 26.3051V15.5823C7.64705 12.1231 8.81064 10.7737 12.2864 10.7737H27.2918L30.8229 5.16406H11.0092Z" fill="#9CA3AF"/>
<path d="M114.562 5.156C110.763 5.156 106.87 7.45678 106.87 13.3747V14.8953C106.87 21.0647 110.616 23.4185 114.364 23.4345H127.519C128.885 23.4345 129.995 23.6634 129.995 25.9906L129.993 28.6791C129.958 30.77 128.923 31.2485 127.472 31.2485H110.165L106.62 36.8203H127.879C133.005 36.8203 136.486 34.25 136.486 28.3132V26.1315C136.486 20.3914 133.252 17.6793 128.238 17.6793H115.677C114.285 17.6793 113.314 17.2963 113.314 15.2178V13.0286C113.314 11.2583 113.98 10.6124 115.602 10.6124L132.084 10.6058L135.528 5.14844L114.562 5.156Z" fill="#9CA3AF"/>
<path d="M82.8967 5.17188L68 36.8267H75.0406L77.9421 30.2894H94.1299L97.0219 36.8267H104.093L89.1622 5.17188H82.8967ZM86.0205 11.7442L91.7446 24.901H80.333L86.0205 11.7442Z" fill="#9CA3AF"/>
</svg>
