<svg width="128" height="42" viewBox="0 0 128 42" fill="none" xmlns="http://www.w3.org/2000/svg">
<g clip-path="url(#clip0_4583_722)">
<path d="M124.013 25.6694L127.563 28.0366C126.411 29.7341 123.654 32.6464 118.889 32.6464C112.971 32.6464 108.563 28.0677 108.563 22.2431C108.563 16.0448 113.018 11.8398 118.391 11.8398C123.795 11.8398 126.442 16.1382 127.299 18.4587L127.766 19.6423L113.843 25.4046C114.902 27.4915 116.553 28.5505 118.889 28.5505C121.225 28.5505 122.845 27.398 124.013 25.6694ZM113.095 21.9161L122.393 18.0538C121.879 16.7612 120.353 15.8423 118.531 15.8423C116.21 15.8423 112.986 17.898 113.095 21.9161Z" fill="#9CA3AF"/>
<path d="M101.852 1.23438H106.337V31.6967H101.852V1.23438Z" fill="#9CA3AF"/>
<path d="M94.7807 12.6496H99.1102V31.1513C99.1102 38.8291 94.5782 41.9906 89.2209 41.9906C84.175 41.9906 81.1381 38.5955 80.0012 35.839L83.9725 34.1882C84.6889 35.8857 86.4176 37.8947 89.2209 37.8947C92.6627 37.8947 94.7807 35.7611 94.7807 31.7742V30.2791H94.625C93.5971 31.525 91.6348 32.6464 89.143 32.6464C83.9414 32.6464 79.1758 28.1144 79.1758 22.2742C79.1758 16.4029 83.9414 11.8242 89.143 11.8242C91.6192 11.8242 93.5971 12.93 94.625 14.1447H94.7807V12.6496ZM95.0922 22.2742C95.0922 18.5988 92.6471 15.9201 89.5323 15.9201C86.3864 15.9201 83.7389 18.5988 83.7389 22.2742C83.7389 25.9029 86.3864 28.5349 89.5323 28.5349C92.6471 28.5505 95.0922 25.9029 95.0922 22.2742Z" fill="#9CA3AF"/>
<path d="M54.5536 22.1962C54.5536 28.1921 49.8815 32.5995 44.1503 32.5995C38.4192 32.5995 33.7471 28.1765 33.7471 22.1962C33.7471 16.1691 38.4192 11.7773 44.1503 11.7773C49.8815 11.7773 54.5536 16.1691 54.5536 22.1962ZM50.0061 22.1962C50.0061 18.4585 47.2962 15.8888 44.1503 15.8888C41.0044 15.8888 38.2946 18.4585 38.2946 22.1962C38.2946 25.9028 41.0044 28.5036 44.1503 28.5036C47.2962 28.5036 50.0061 25.9028 50.0061 22.1962Z" fill="#9CA3AF"/>
<path d="M77.2753 22.2431C77.2753 28.239 72.6032 32.6464 66.872 32.6464C61.1409 32.6464 56.4688 28.239 56.4688 22.2431C56.4688 16.2161 61.1409 11.8398 66.872 11.8398C72.6032 11.8398 77.2753 16.2005 77.2753 22.2431ZM72.7122 22.2431C72.7122 18.5054 70.0024 15.9357 66.8565 15.9357C63.7106 15.9357 61.0007 18.5054 61.0007 22.2431C61.0007 25.9497 63.7106 28.5505 66.8565 28.5505C70.0179 28.5505 72.7122 25.9341 72.7122 22.2431Z" fill="#9CA3AF"/>
<path d="M16.647 28.0836C10.1216 28.0836 5.01342 22.8197 5.01342 16.2943C5.01342 9.76887 10.1216 4.50493 16.647 4.50493C20.1667 4.50493 22.7364 5.891 24.6364 7.66641L27.7667 4.53608C25.1192 1.99755 21.5839 0.0664062 16.647 0.0664062C7.70768 0.0664062 0.185547 7.35493 0.185547 16.2943C0.185547 25.2336 7.70768 32.5222 16.647 32.5222C21.4749 32.5222 25.1192 30.9336 27.9692 27.9746C30.897 25.0467 31.8003 20.9353 31.8003 17.6025C31.8003 16.559 31.6757 15.4844 31.5356 14.6902H16.647V19.0197H27.2528C26.9413 21.7295 26.0847 23.5828 24.8233 24.8443C23.297 26.3861 20.8831 28.0836 16.647 28.0836Z" fill="#9CA3AF"/>
</g>
<defs>
<clipPath id="clip0_4583_722">
<rect width="128" height="42" fill="white"/>
</clipPath>
</defs>
</svg>
