<svg width="197" height="42" viewBox="0 0 197 42" fill="none" xmlns="http://www.w3.org/2000/svg">
<g clip-path="url(#clip0_4583_708)">
<path d="M69.4933 24.1895L68.3199 27.5104H68.2221C68.0265 26.7616 67.668 25.622 67.0812 24.2546L60.7904 8.4639H54.6299V33.6313H58.7043V18.1011C58.7043 17.1244 58.7043 16.0174 58.6717 14.6499C58.6391 13.9662 58.5739 13.4453 58.5413 13.0546H58.6391C58.8347 14.0313 59.0628 14.7476 59.2258 15.2034L66.7879 33.5662H69.6563L77.1532 15.0406C77.3161 14.6174 77.4791 13.7709 77.6421 13.0546H77.7399C77.6421 14.9104 77.5769 16.5709 77.5443 17.5802V33.5337H81.8795V8.39878H75.9471L69.4933 24.1895ZM85.9865 15.4965H90.2238V33.5337H85.9865V15.4965ZM88.1377 7.87785C87.4207 7.87785 86.8339 8.13832 86.345 8.59413C85.8561 9.04995 85.5953 9.63599 85.5953 10.3523C85.5953 11.036 85.8561 11.622 86.345 12.0779C86.8339 12.5337 87.4207 12.7616 88.1377 12.7616C88.8548 12.7616 89.4742 12.5011 89.9305 12.0779C90.4194 11.622 90.6802 11.036 90.6802 10.3523C90.6802 9.66855 90.4194 9.0825 89.9305 8.59413C89.5067 8.13832 88.8874 7.87785 88.1377 7.87785ZM105.25 15.3337C104.468 15.1709 103.653 15.0732 102.871 15.0732C100.948 15.0732 99.1875 15.4965 97.7207 16.343C96.254 17.1895 95.0805 18.3616 94.3308 19.8267C93.5485 21.3244 93.1574 23.0499 93.1574 25.036C93.1574 26.7616 93.5485 28.2918 94.2982 29.6918C95.0479 31.0592 96.091 32.1662 97.4926 32.9151C98.829 33.6639 100.394 34.0546 102.154 34.0546C104.175 34.0546 105.902 33.6313 107.271 32.8499L107.304 32.8174V28.9104L107.141 29.0406C106.521 29.4965 105.804 29.8872 105.087 30.1151C104.338 30.3755 103.653 30.5058 103.066 30.5058C101.371 30.5058 100.035 30.0174 99.0897 28.943C98.1119 27.9011 97.623 26.4686 97.623 24.6779C97.623 22.822 98.1119 21.3569 99.1223 20.2825C100.133 19.2081 101.469 18.6546 103.099 18.6546C104.468 18.6546 105.87 19.1104 107.141 20.022L107.304 20.1523V16.0174L107.271 15.9848C106.717 15.7569 106.098 15.4965 105.25 15.3337ZM119.234 15.2034C118.191 15.2034 117.213 15.529 116.365 16.2127C115.648 16.7988 115.159 17.6453 114.735 18.6546H114.703V15.4965H110.465V33.5337H114.703V24.3197C114.703 22.7569 115.029 21.4546 115.746 20.5104C116.463 19.5337 117.376 19.0453 118.484 19.0453C118.875 19.0453 119.266 19.143 119.755 19.2081C120.211 19.3383 120.537 19.4685 120.766 19.6313L120.929 19.7616V15.529L120.831 15.4965C120.537 15.3011 119.951 15.2034 119.234 15.2034ZM130.772 15.1058C127.806 15.1058 125.427 15.9848 123.764 17.7104C122.069 19.436 121.254 21.8127 121.254 24.8081C121.254 27.6081 122.102 29.8872 123.732 31.5476C125.361 33.1755 127.578 34.022 130.349 34.022C133.25 34.022 135.564 33.143 137.226 31.3848C138.921 29.6267 139.736 27.2825 139.736 24.3848C139.736 21.5197 138.954 19.2406 137.356 17.5802C135.825 15.9197 133.575 15.1058 130.772 15.1058ZM134.162 28.9755C133.38 29.9848 132.141 30.4732 130.609 30.4732C129.077 30.4732 127.839 29.9848 126.959 28.9104C126.079 27.9011 125.655 26.436 125.655 24.5802C125.655 22.6592 126.111 21.1941 126.959 20.1523C127.839 19.1104 129.045 18.5895 130.577 18.5895C132.076 18.5895 133.25 19.0779 134.097 20.0872C134.944 21.0965 135.401 22.5616 135.401 24.4825C135.336 26.436 134.977 27.9662 134.162 28.9755ZM149.189 22.9848C147.852 22.4313 147.005 22.0081 146.614 21.6499C146.288 21.3244 146.125 20.8685 146.125 20.2825C146.125 19.7941 146.32 19.3058 146.809 18.9802C147.298 18.6546 147.852 18.4918 148.667 18.4918C149.384 18.4918 150.134 18.622 150.851 18.8174C151.568 19.0127 152.22 19.3058 152.741 19.6965L152.904 19.8267V15.8546L152.807 15.822C152.318 15.6267 151.666 15.4313 150.884 15.2686C150.101 15.1383 149.384 15.0732 148.797 15.0732C146.777 15.0732 145.114 15.5616 143.81 16.636C142.507 17.6453 141.887 19.0127 141.887 20.6081C141.887 21.4546 142.018 22.2034 142.311 22.822C142.604 23.4406 143.028 24.0267 143.615 24.5151C144.201 24.9709 145.049 25.4918 146.222 25.9802C147.2 26.4034 147.95 26.729 148.406 26.9895C148.863 27.2499 149.156 27.543 149.384 27.7709C149.547 28.0313 149.645 28.3569 149.645 28.7802C149.645 29.9848 148.732 30.5709 146.874 30.5709C146.157 30.5709 145.408 30.4406 144.527 30.1476C143.647 29.8546 142.832 29.4313 142.148 28.943L141.985 28.8127V32.9476L142.083 32.9802C142.702 33.2732 143.452 33.4686 144.364 33.6965C145.277 33.8592 146.092 33.9895 146.809 33.9895C148.993 33.9895 150.786 33.5011 152.057 32.4267C153.361 31.3848 154.045 30.0499 154.045 28.3244C154.045 27.1197 153.719 26.0453 153.002 25.2313C152.057 24.4499 150.884 23.636 149.189 22.9848ZM165.225 15.1058C162.259 15.1058 159.88 15.9848 158.217 17.7104C156.555 19.436 155.708 21.8127 155.708 24.8081C155.708 27.6081 156.555 29.8872 158.185 31.5476C159.815 33.1755 162.031 34.022 164.802 34.022C167.703 34.022 170.017 33.143 171.679 31.3848C173.374 29.6267 174.189 27.2825 174.189 24.3848C174.189 21.5197 173.407 19.2406 171.81 17.5802C170.278 15.9197 168.029 15.1058 165.225 15.1058ZM168.583 28.9755C167.8 29.9848 166.562 30.4732 165.03 30.4732C163.465 30.4732 162.259 29.9848 161.379 28.9104C160.499 27.9011 160.075 26.436 160.075 24.5802C160.075 22.6592 160.532 21.1941 161.379 20.1523C162.259 19.1104 163.465 18.5895 164.997 18.5895C166.464 18.5895 167.67 19.0779 168.518 20.0872C169.365 21.0965 169.821 22.5616 169.821 24.4825C169.821 26.436 169.398 27.9662 168.583 28.9755ZM196.843 18.9802V15.4965H192.573V10.1569L192.442 10.1895L188.401 11.3941L188.303 11.4267V15.4965H181.914V13.2174C181.914 12.1755 182.175 11.3616 182.631 10.8406C183.088 10.3197 183.772 10.0592 184.62 10.0592C185.206 10.0592 185.826 10.1895 186.51 10.4825L186.673 10.5802V6.90111L186.575 6.86855C185.989 6.6732 185.206 6.54297 184.196 6.54297C182.925 6.54297 181.816 6.83599 180.806 7.32436C179.795 7.87785 179.046 8.62669 178.492 9.63599C177.938 10.6127 177.644 11.7197 177.644 12.9895V15.4965H174.678V18.9476H177.644V33.5337H181.914V18.9802H188.303V28.2593C188.303 32.0686 190.096 33.9895 193.681 33.9895C194.268 33.9895 194.887 33.8918 195.474 33.7941C196.093 33.6639 196.549 33.5011 196.81 33.3709L196.843 33.3383V29.8546L196.68 29.9848C196.419 30.1476 196.191 30.2779 195.8 30.3755C195.474 30.4732 195.18 30.5058 194.952 30.5058C194.105 30.5058 193.518 30.3104 193.094 29.822C192.703 29.3662 192.508 28.6174 192.508 27.5104V18.9802H196.843Z" fill="#9CA3AF"/>
<path d="M0 0H19.9809V19.9581H0V0Z" fill="#9CA3AF"/>
<path d="M22.0674 0H42.0482V19.9581H22.0674V0Z" fill="#9CA3AF"/>
<path d="M0 22.043H19.9809V42.0011H0V22.043Z" fill="#9CA3AF"/>
<path d="M22.0674 22.043H42.0482V42.0011H22.0674V22.043Z" fill="#9CA3AF"/>
</g>
<defs>
<clipPath id="clip0_4583_708">
<rect width="196.875" height="42" fill="white"/>
</clipPath>
</defs>
</svg>
