<svg width="158" height="42" viewBox="0 0 158 42" fill="none" xmlns="http://www.w3.org/2000/svg">
<g clip-path="url(#clip0_4583_714)">
<path d="M58.8141 8.58984H50.1099C49.8217 8.58966 49.543 8.6924 49.3239 8.87954C49.1048 9.06669 48.9597 9.32593 48.9148 9.61057L45.3944 31.9304C45.3783 32.034 45.3847 32.1398 45.4134 32.2407C45.442 32.3415 45.4922 32.4349 45.5604 32.5145C45.6286 32.5941 45.7133 32.658 45.8085 32.7017C45.9038 32.7454 46.0074 32.768 46.1123 32.7678H50.2677C50.5561 32.768 50.835 32.6651 51.0541 32.4777C51.2732 32.2903 51.4182 32.0307 51.4628 31.7458L52.4123 25.7258C52.4568 25.4412 52.6016 25.1818 52.8205 24.9944C53.0394 24.8071 53.318 24.704 53.6061 24.7038H56.3615C62.0952 24.7038 65.4043 21.9293 66.2684 16.4311C66.6579 14.0257 66.285 12.1357 65.1586 10.812C63.9215 9.35857 61.7273 8.58984 58.8141 8.58984ZM59.8183 16.7417C59.3423 19.8649 56.9559 19.8649 54.6484 19.8649H53.335L54.2564 14.032C54.2834 13.8614 54.3704 13.706 54.5018 13.5937C54.6331 13.4815 54.8002 13.4198 54.973 13.4198H55.575C57.1468 13.4198 58.6295 13.4198 59.3957 14.3158C59.8526 14.8504 59.9926 15.6446 59.8183 16.7417ZM84.8324 16.6411H80.6643C80.4915 16.6411 80.3244 16.7028 80.193 16.815C80.0617 16.9272 79.9747 17.0826 79.9477 17.2533L79.7632 18.4191L79.4717 17.9966C78.5694 16.6869 76.5572 16.2491 74.5488 16.2491C69.9428 16.2491 66.0088 19.7377 65.2426 24.6313C64.8443 27.0724 65.4106 29.4066 66.7953 31.0344C68.0655 32.5311 69.883 33.1548 72.0453 33.1548C75.7566 33.1548 77.8146 30.7684 77.8146 30.7684L77.6288 31.9266C77.6122 32.0301 77.6183 32.136 77.6466 32.237C77.675 32.338 77.7248 32.4316 77.7928 32.5114C77.8608 32.5913 77.9453 32.6554 78.0405 32.6995C78.1356 32.7435 78.2392 32.7664 78.3441 32.7666H82.0986C82.387 32.7667 82.6659 32.6638 82.885 32.4764C83.1041 32.289 83.2491 32.0294 83.2937 31.7446L85.5464 17.4786C85.563 17.3753 85.557 17.2696 85.5287 17.1688C85.5005 17.0681 85.4507 16.9746 85.3828 16.895C85.3149 16.8154 85.2305 16.7514 85.1355 16.7076C85.0405 16.6638 84.9371 16.6411 84.8324 16.6411ZM79.0224 24.7535C78.6203 27.1348 76.7303 28.7333 74.3197 28.7333C73.1094 28.7333 72.1421 28.3451 71.521 27.6095C70.905 26.8789 70.6708 25.8391 70.8668 24.6809C71.2423 22.32 73.1641 20.6693 75.5377 20.6693C76.7214 20.6693 77.6835 21.0626 78.3173 21.8046C78.9524 22.5542 79.2044 23.6004 79.0224 24.7535ZM107.031 16.6411H102.843C102.645 16.6414 102.451 16.6899 102.276 16.7824C102.102 16.8749 101.952 17.0086 101.841 17.1718L96.0643 25.6813L93.6155 17.504C93.5404 17.2546 93.3869 17.036 93.1779 16.8806C92.9688 16.7252 92.7153 16.6412 92.4548 16.6411H88.3388C88.2233 16.6408 88.1093 16.6681 88.0065 16.7207C87.9036 16.7733 87.8148 16.8498 87.7474 16.9437C87.6801 17.0375 87.6361 17.1461 87.6192 17.2604C87.6023 17.3747 87.613 17.4914 87.6502 17.6008L92.2639 31.14L87.9264 37.2631C87.8493 37.3717 87.8036 37.4994 87.7943 37.6322C87.7849 37.765 87.8123 37.8978 87.8734 38.0161C87.9346 38.1344 88.027 38.2336 88.1408 38.3028C88.2545 38.372 88.3851 38.4086 88.5183 38.4086H92.7017C92.897 38.4088 93.0895 38.3617 93.2626 38.2713C93.4358 38.1809 93.5844 38.0498 93.6957 37.8893L107.627 17.7802C107.702 17.6714 107.747 17.544 107.755 17.4119C107.763 17.2797 107.735 17.1478 107.674 17.0304C107.613 16.9131 107.52 16.8147 107.407 16.7461C107.294 16.6775 107.164 16.6412 107.031 16.6411Z" fill="#9CA3AF"/>
<path d="M120.899 8.59112H112.194C111.906 8.59124 111.627 8.69411 111.409 8.88123C111.19 9.06835 111.045 9.32742 111 9.61184L107.48 31.9317C107.463 32.035 107.469 32.1408 107.498 32.2415C107.526 32.3423 107.576 32.4357 107.644 32.5153C107.712 32.5949 107.797 32.6588 107.892 32.7026C107.987 32.7464 108.09 32.7691 108.195 32.7691H112.662C112.864 32.7688 113.059 32.6966 113.212 32.5655C113.365 32.4344 113.466 32.2529 113.497 32.0538L114.496 25.7271C114.541 25.4425 114.686 25.1831 114.904 24.9957C115.123 24.8083 115.402 24.7053 115.69 24.7051H118.444C124.179 24.7051 127.487 21.9306 128.352 16.4324C128.743 14.0269 128.368 12.1369 127.241 10.8133C126.005 9.35984 123.813 8.59112 120.899 8.59112ZM121.903 16.7429C121.429 19.8662 119.042 19.8662 116.734 19.8662H115.421L116.344 14.0333C116.371 13.8626 116.457 13.7071 116.588 13.5948C116.72 13.4825 116.887 13.4209 117.059 13.4211H117.661C119.232 13.4211 120.716 13.4211 121.482 14.3171C121.939 14.8517 122.078 15.6458 121.903 16.7429ZM146.916 16.6424H142.751C142.578 16.6419 142.411 16.7034 142.279 16.8158C142.148 16.9281 142.062 17.0838 142.035 17.2546L141.851 18.4204L141.558 17.9978C140.656 16.6882 138.645 16.2504 136.637 16.2504C132.031 16.2504 128.098 19.7389 127.332 24.6326C126.935 27.0737 127.498 29.4078 128.883 31.0357C130.156 32.5324 131.971 33.156 134.133 33.156C137.844 33.156 139.902 30.7697 139.902 30.7697L139.717 31.9278C139.7 32.0316 139.706 32.1377 139.735 32.2389C139.763 32.34 139.813 32.4338 139.881 32.5137C139.95 32.5936 140.034 32.6577 140.13 32.7015C140.225 32.7454 140.329 32.7681 140.434 32.7678H144.188C144.476 32.7677 144.754 32.6646 144.973 32.4772C145.192 32.2899 145.337 32.0305 145.381 31.7458L147.635 17.4798C147.651 17.3762 147.645 17.2703 147.616 17.1695C147.587 17.0687 147.537 16.9752 147.469 16.8957C147.4 16.8161 147.315 16.7523 147.22 16.7086C147.125 16.6648 147.021 16.6423 146.916 16.6424ZM141.106 24.7547C140.707 27.136 138.814 28.7346 136.404 28.7346C135.196 28.7346 134.226 28.3464 133.605 27.6108C132.989 26.8802 132.757 25.8404 132.951 24.6822C133.329 22.3213 135.248 20.6706 137.622 20.6706C138.805 20.6706 139.767 21.0638 140.401 21.8058C141.039 22.5555 141.291 23.6017 141.106 24.7547ZM151.83 9.2033L148.258 31.9317C148.241 32.035 148.248 32.1408 148.276 32.2415C148.304 32.3423 148.354 32.4357 148.422 32.5153C148.49 32.5949 148.575 32.6588 148.67 32.7026C148.765 32.7464 148.868 32.7691 148.973 32.7691H152.565C153.162 32.7691 153.668 32.3364 153.76 31.7471L157.283 9.42857C157.299 9.32512 157.293 9.21935 157.264 9.11853C157.236 9.01772 157.186 8.92425 157.118 8.84456C157.05 8.76486 156.966 8.70083 156.871 8.65686C156.776 8.61289 156.672 8.59003 156.567 8.58984H152.546C152.373 8.59046 152.206 8.65252 152.075 8.76493C151.944 8.87734 151.857 9.03274 151.83 9.2033Z" fill="#9CA3AF"/>
<path d="M9.24786 37.1065L9.9135 32.8785L8.43077 32.8441H1.35059L6.27095 1.64578C6.2856 1.55046 6.33401 1.46357 6.40737 1.40096C6.48073 1.33835 6.57414 1.30418 6.67059 1.30469H18.6088C22.572 1.30469 25.3071 2.12942 26.7351 3.75724C27.4046 4.52087 27.8309 5.31887 28.0371 6.19706C28.2535 7.11851 28.2573 8.21942 28.046 9.56215L28.0308 9.66015V10.5205L28.7002 10.8998C29.2113 11.1587 29.6707 11.509 30.0557 11.9332C30.6284 12.5861 30.9988 13.416 31.1553 14.3998C31.317 15.4116 31.2635 16.6156 30.9988 17.9787C30.6933 19.5467 30.1995 20.9123 29.5326 22.0298C28.9442 23.0308 28.153 23.8979 27.2099 24.5752C26.324 25.204 25.2715 25.6812 24.0815 25.9867C22.9284 26.2871 21.6137 26.4385 20.1717 26.4385H19.2426C18.5782 26.4385 17.933 26.6778 17.4264 27.1067C16.9206 27.5402 16.585 28.1391 16.4795 28.7969L16.4095 29.1774L15.2335 36.6292L15.18 36.9029C15.166 36.9894 15.1419 37.0327 15.1062 37.062C15.0717 37.0902 15.0286 37.1059 14.984 37.1065H9.24786Z" fill="#9CA3AF"/>
<path d="M29.3337 9.75781C29.2981 9.98563 29.2573 10.2185 29.2115 10.4578C27.6372 18.5409 22.251 21.3333 15.3719 21.3333H11.8693C11.0281 21.3333 10.3192 21.9442 10.1881 22.774L8.3948 34.1471L7.88698 37.3709C7.86675 37.4988 7.87448 37.6295 7.90962 37.7541C7.94476 37.8787 8.0065 37.9942 8.09056 38.0927C8.17463 38.1912 8.27903 38.2702 8.39659 38.3245C8.51415 38.3787 8.64206 38.4068 8.77153 38.4069H14.9837C15.7193 38.4069 16.3443 37.8724 16.4601 37.1469L16.5212 36.8313L17.6908 29.4087L17.7659 29.0014C17.8804 28.2734 18.5066 27.7389 19.2423 27.7389H20.1713C26.1901 27.7389 30.9017 25.2953 32.2788 18.224C32.8541 15.27 32.5563 12.8034 31.0341 11.0687C30.5516 10.5321 29.9754 10.0879 29.3337 9.75781Z" fill="#9CA3AF"/>
<path d="M27.6872 9.1007C27.1845 8.95528 26.6731 8.84178 26.1561 8.76088C25.1345 8.60388 24.102 8.52855 23.0685 8.53561H13.7114C13.3553 8.53533 13.0108 8.66247 12.7403 8.89402C12.4698 9.12558 12.291 9.44628 12.2363 9.79816L10.2457 22.4058L10.1885 22.7736C10.2505 22.3723 10.4541 22.0064 10.7625 21.7421C11.0709 21.4778 11.4636 21.3327 11.8697 21.3329H15.3723C22.2514 21.3329 27.6376 18.5392 29.2119 10.4574C29.259 10.2182 29.2985 9.98525 29.3341 9.75743C28.9187 9.53957 28.4857 9.35693 28.0397 9.21143C27.9228 9.17264 27.8053 9.13572 27.6872 9.1007Z" fill="#9CA3AF"/>
<path d="M12.2359 9.79873C12.2901 9.44675 12.4688 9.1259 12.7395 8.89446C13.0101 8.66302 13.3548 8.53635 13.711 8.53746H23.0681C24.1766 8.53746 25.2113 8.61 26.1557 8.76273C26.7947 8.86316 27.425 9.01338 28.0406 9.212C28.5051 9.366 28.9366 9.548 29.335 9.758C29.8033 6.77091 29.3312 4.73709 27.7161 2.89545C25.9355 0.868 22.7219 0 18.6097 0H6.67152C5.83152 0 5.11497 0.610909 4.98516 1.442L0.0126124 32.9611C-0.0105489 33.1074 -0.00173685 33.257 0.0384424 33.3997C0.0786217 33.5423 0.149215 33.6745 0.245365 33.7872C0.341516 33.8999 0.460942 33.9905 0.595429 34.0526C0.729916 34.1148 0.876273 34.1471 1.02443 34.1473H8.39479L10.2453 22.4064L12.2359 9.79873Z" fill="#9CA3AF"/>
</g>
<defs>
<clipPath id="clip0_4583_714">
<rect width="157.818" height="42" fill="white"/>
</clipPath>
</defs>
</svg>
