<svg width="168" height="42" viewBox="0 0 168 42" fill="none" xmlns="http://www.w3.org/2000/svg">
<path d="M0.84082 9.1769C0.84082 9.1769 4.97654 26.1551 5.63659 28.9109C6.40698 32.1275 7.79508 33.3113 11.7973 32.5129L14.3797 21.9865C15.0342 19.3719 15.4732 17.5078 15.894 14.848H15.968C16.2636 17.5339 16.6846 19.3797 17.2232 21.9957C17.2232 21.9957 18.2744 26.7744 18.8128 29.2843C19.3525 31.7934 20.8547 33.3747 24.7748 32.5138L30.9281 9.17868H25.96L23.8594 19.2676C23.2946 22.2043 22.782 24.4989 22.3869 27.1855H22.3168C21.9577 24.5257 21.5009 22.322 20.9267 19.4607L18.7394 9.17868H13.5631L11.2234 19.2017C10.5605 22.2474 9.94056 24.7068 9.54631 27.3023H9.47491C9.07117 24.858 8.53341 21.767 7.9511 18.8187C7.9511 18.8187 6.56103 11.6498 6.07331 9.17868L0.841304 9.17935L0.84082 9.1769ZM48.2011 9.1769V32.512H52.9311V27.5569V9.17578H48.2011V9.1769ZM114.819 9.1769V26.3916C114.819 28.7651 115.265 30.428 116.219 31.4439C117.052 32.3324 118.425 32.9077 120.069 32.9077C121.468 32.9077 122.844 32.642 123.492 32.4L123.431 28.6968C122.949 28.8158 122.394 28.911 121.635 28.911C120.023 28.911 119.483 27.8771 119.483 25.746V19.1598H123.602V14.6951H119.483V9.17696H114.819L114.819 9.1769ZM37.6305 14.5865C34.6909 14.5865 32.3575 15.4134 31.0855 16.1497L32.0164 19.3431C33.1805 18.6078 35.034 17.9992 36.789 17.9992C39.6947 17.9917 40.1697 19.6452 40.1697 20.7056V20.9564C33.8383 20.9469 29.839 23.1418 29.839 27.616C29.839 30.3477 31.8748 32.9076 35.4149 32.9076C37.5941 32.9076 39.4167 32.0369 40.509 30.6418H40.6161C40.6161 30.6418 41.3394 33.6716 45.3242 32.513C45.1149 31.252 45.0469 29.9075 45.0469 28.2881V22.0543C45.0469 18.0811 43.3536 14.5865 37.6306 14.5865L37.6305 14.5865ZM65.925 14.5865C62.9651 14.5865 61.635 16.0892 60.8285 17.3642H60.7584V14.9822H56.2444V32.5131H60.9996V22.232C60.9996 21.75 61.0546 21.2403 61.2225 20.7969C61.6165 19.7618 62.5778 18.551 64.1126 18.551C66.0312 18.551 66.9291 20.1761 66.9291 22.5214V32.513H71.6792V22.1074C71.6792 21.6473 71.7421 21.0931 71.8773 20.6863C72.2678 19.5089 73.3041 18.5508 74.7308 18.5508C76.6759 18.5508 77.6095 20.1476 77.6095 22.9074V32.513H82.3629V22.1878C82.3629 16.7425 79.603 14.5866 76.4876 14.5866C75.1078 14.5866 74.0188 14.9332 73.0342 15.5388C72.2066 16.0475 71.4657 16.7704 70.8181 17.7223H70.748C69.9946 15.8329 68.2269 14.5866 65.9242 14.5866L65.925 14.5865ZM92.0371 14.5865C89.0982 14.5865 86.7652 15.4134 85.4921 16.1497L86.4242 19.3431C87.5872 18.6078 89.4418 17.9992 91.1959 17.9992C94.0996 17.9917 94.5758 19.6452 94.5758 20.7056V20.9564C88.2452 20.9469 84.2455 23.1418 84.2455 27.616C84.2455 30.3477 86.2824 32.9076 89.8244 32.9076C92.0018 32.9076 93.825 32.0369 94.9153 30.6418H95.0228C95.0228 30.6418 95.746 33.6716 99.7314 32.513C99.5218 31.252 99.4545 29.9075 99.4545 28.2881V22.0543C99.4545 18.0811 97.7607 14.5865 92.037 14.5865L92.0371 14.5865ZM111.784 14.5865C109.963 14.5865 107.892 15.764 107.022 18.2883H106.889V14.982H102.609V32.5129H107.488V23.536C107.488 23.0517 107.518 22.6294 107.594 22.2422C107.955 20.3618 109.391 19.1597 111.451 19.1597C112.017 19.1597 112.422 19.2211 112.86 19.2844V14.6949C112.493 14.6206 112.241 14.5863 111.784 14.5863L111.784 14.5865ZM40.3224 24.063V26.25C40.3224 26.5735 40.2943 26.9073 40.2049 27.1991C39.8388 28.4138 38.5828 29.4402 37.0127 29.4402C35.7038 29.4402 34.6639 28.6959 34.6639 27.1214C34.6639 24.7131 37.3101 24.0474 40.3226 24.063H40.3224ZM94.729 24.063V26.25C94.729 26.5735 94.7003 26.9073 94.6114 27.1991C94.2454 28.4138 92.9898 29.4402 91.4198 29.4402C90.1105 29.4402 89.0705 28.6959 89.0705 27.1214C89.0705 24.7131 91.7167 24.0474 94.7291 24.063H94.729Z" fill="#9CA3AF"/>
<path d="M149.177 0.734375C147.65 0.734375 146.436 1.58869 146.436 2.62873L147.364 13.1491C147.466 13.7829 148.241 14.2718 149.178 14.2718C150.117 14.2706 150.889 13.7821 150.994 13.1491L151.925 2.62873C151.925 1.58878 150.708 0.734464 149.179 0.734464L149.177 0.734375ZM134.065 9.17328C133.272 9.19212 132.371 9.79344 131.798 10.7885C131.032 12.1135 131.168 13.5941 132.064 14.1136L141.621 18.5724C142.218 18.7948 143.029 18.3701 143.498 17.5591C143.499 17.559 143.498 17.5588 143.498 17.5586C143.97 16.7437 143.934 15.8273 143.437 15.4209L134.806 9.35574C134.582 9.22566 134.329 9.16713 134.065 9.17341L134.065 9.17328ZM164.29 9.17328C164.026 9.167 163.774 9.22553 163.55 9.35561L154.918 15.4208C154.424 15.8272 154.387 16.7436 154.857 17.5585L154.857 17.559C155.329 18.3699 156.137 18.7947 156.734 18.5722L166.295 14.1137C167.195 13.5942 167.324 12.1136 166.563 10.7886C165.987 9.79351 165.085 9.19222 164.293 9.17337L164.29 9.17328ZM141.978 23.0534C141.854 23.0517 141.735 23.0708 141.622 23.1131L132.066 27.5665C131.169 28.0882 131.034 29.5695 131.8 30.8959C132.563 32.2182 133.91 32.8469 134.806 32.3283L143.438 26.2679C143.935 25.8564 143.972 24.9404 143.5 24.1262L143.504 24.128C143.122 23.4648 142.514 23.0605 141.978 23.0532L141.978 23.0534ZM156.381 23.0534C155.845 23.0607 155.238 23.4649 154.856 24.1281L154.859 24.1263C154.39 24.9405 154.426 25.8566 154.92 26.268L163.552 32.3285C164.447 32.847 165.795 32.2184 166.562 30.896C167.323 29.5696 167.194 28.0883 166.294 27.5666L156.736 23.1132C156.624 23.0709 156.504 23.0518 156.381 23.0535L156.381 23.0534ZM149.176 27.4134C148.241 27.4145 147.467 27.9013 147.365 28.5335L146.438 39.0534C146.438 40.0952 147.651 40.9477 149.179 40.9477C150.708 40.9477 151.924 40.0951 151.924 39.0534L150.995 28.5335C150.89 27.9013 150.118 27.4146 149.179 27.4134H149.176H149.176Z" fill="#9CA3AF"/>
</svg>
